# xmcd
#
# Track frame offsets: 
#        150
#        15737
#        33337
#        53862
#        69455
#        83380
#        100380
#        120250
#        131945
#        151050
#        168050
#        184770
#        198912
#        219365
#        232345
#        250020
#        271395
#        297725
#
# Disc length: 4186 seconds
#
# Revision: 4
# Processed by: cddbd v1.5.2PL0 Copyright (c) Steve Scherf et al.
# Submitted via: ExactAudioCopy v1.0b4
#
DISCID=f7105812
DTITLE=Various Artist - Gute Zeiten Schlechte Zeiten - Das Fan-Album
DYEAR=1993
DGENRE=Pop
TTITLE0=Bo Andersen - Mitten ins Herz (Titelmelodie aus 'Gute Zeiten S
TTITLE0=chlechte Zeiten')
TTITLE1=Londonbeat - That's How I Feel About You
TTITLE2=One More Time - Highland
TTITLE3=Die Fantastischen Vier - Die Da!?!
TTITLE4=Double You - Who's Fooling Who
TTITLE5=Jon Wilson - Sweat (A La La La La Long)
TTITLE6=Generations Of Love - (She Can't Heal This) Restless Heart
TTITLE7=Florian Snyder - Alice In Fashionland
TTITLE8=Bobby Brown - On Our Own
TTITLE9=Johnny and Frankey - Would I Lie To You?
TTITLE10=Love Pirates - Perfect Day
TTITLE11=Nena - Manchmal ist ein Tag ein ganzes Leben
TTITLE12=Dekko - I Will Always Love You
TTITLE13=Right Said Fred - I'm Too Sexy
TTITLE14=Johnny Mash - Rock Me Baby
TTITLE15=Fairies Welcome - Die For You
TTITLE16=Geoff Jackson - End Of The Road
TTITLE17=Sandie Shaw - Where Were You
EXTD=YEAR: 1993
EXTT0=
EXTT1=
EXTT2=
EXTT3=
EXTT4=
EXTT5=
EXTT6=
EXTT7=
EXTT8=
EXTT9=
EXTT10=
EXTT11=
EXTT12=
EXTT13=
EXTT14=
EXTT15=
EXTT16=
EXTT17=
PLAYORDER=
